<?xml version="1.0" encoding="UTF-8"?>
<svg id="Layer_2" data-name="Layer 2" xmlns="http://www.w3.org/2000/svg" viewBox="0 0 192.93 187.3">
  <g id="Layer_1-2">
    <g id="Logo3">
      <g>
        <path d="M81.26,133.82c-10.51,0-19.07-2.58-25.67-7.73-6.6-5.15-11.46-12.77-14.55-22.84-3.1-10.07-4.65-21.24-4.65-33.51s2.12-23.79,6.37-33.96c3.3-7.95,8.52-14.39,15.67-19.31,7.14-4.92,14.99-7.38,23.55-7.38,10.24,0,19.41,3.3,27.49,9.91,8.09,6.6,13.61,16.11,16.58,28.5h3.94V0h-3.94c-.47,3.44-1.5,5.95-3.08,7.53s-3.45,2.38-5.61,2.38c-1.68,0-5.63-1.21-11.83-3.64-10.71-4.18-20.89-6.27-30.52-6.27-13.07,0-25.42,3.23-37.04,9.7s-20.86,15.57-27.69,27.29C3.42,48.72,0,61.12,0,74.19c0,12.4,3.08,24.09,9.25,35.07,6.17,10.98,14.92,19.41,26.28,25.27,11.35,5.86,24.34,8.79,38.96,8.79,7.97,0,15.21-.94,21.75-2.8l-3.43-7.94c-3.7.81-7.54,1.24-11.55,1.24Z" fill="#cb3a1a" stroke-width="0"/>
        <path d="M192.93,47.11v3.74c-4.99.81-9.43,3.47-13.34,7.98-2.83,3.37-7.04,11.29-12.63,23.75l-47.2,104.71h-3.34l-47-108.96c-5.66-13.14-9.45-20.85-11.37-23.15-1.92-2.29-5.54-3.74-10.87-4.35v-3.74h65.7v3.74h-2.22c-5.93,0-9.97.74-12.13,2.22-1.55,1.01-2.32,2.49-2.32,4.45,0,1.21.27,2.64.81,4.3.54,1.65,2.36,6.08,5.46,13.29l29.21,68.23,27.09-60.75c3.23-7.34,5.22-12.26,5.96-14.76.74-2.49,1.11-4.61,1.11-6.37,0-2.02-.54-3.81-1.62-5.36-1.08-1.55-2.66-2.73-4.75-3.54-2.9-1.15-6.74-1.72-11.52-1.72v-3.74h44.98Z" fill="#7bad27" stroke-width="0"/>
      </g>
    </g>
  </g>
</svg>